<svg width="16" height="16" viewBox="0 0 16 16" fill="none" xmlns="http://www.w3.org/2000/svg">
<path d="M4.276 12.072C4.108 12.072 3.924 12.068 3.724 12.06C3.532 12.052 3.336 12.04 3.136 12.024C2.944 12.008 2.752 11.988 2.56 11.964C2.368 11.94 2.192 11.908 2.032 11.868V3.804C2.192 3.764 2.368 3.732 2.56 3.708C2.752 3.684 2.944 3.664 3.136 3.648C3.336 3.632 3.532 3.62 3.724 3.612C3.916 3.604 4.096 3.6 4.264 3.6C4.744 3.6 5.192 3.636 5.608 3.708C6.032 3.78 6.396 3.904 6.7 4.08C7.012 4.248 7.256 4.472 7.432 4.752C7.608 5.032 7.696 5.376 7.696 5.784C7.696 6.24 7.588 6.616 7.372 6.912C7.156 7.2 6.868 7.416 6.508 7.56C6.996 7.704 7.384 7.932 7.672 8.244C7.96 8.556 8.104 8.996 8.104 9.564C8.104 10.396 7.796 11.024 7.18 11.448C6.572 11.864 5.604 12.072 4.276 12.072ZM3.184 8.124V11.052C3.272 11.06 3.376 11.068 3.496 11.076C3.6 11.084 3.72 11.092 3.856 11.1C4 11.1 4.164 11.1 4.348 11.1C4.692 11.1 5.016 11.08 5.32 11.04C5.632 10.992 5.904 10.912 6.136 10.8C6.368 10.688 6.552 10.532 6.688 10.332C6.832 10.132 6.904 9.88 6.904 9.576C6.904 9.304 6.852 9.076 6.748 8.892C6.644 8.7 6.492 8.548 6.292 8.436C6.1 8.324 5.868 8.244 5.596 8.196C5.324 8.148 5.02 8.124 4.684 8.124H3.184ZM3.184 7.188H4.408C4.696 7.188 4.968 7.168 5.224 7.128C5.48 7.088 5.7 7.016 5.884 6.912C6.076 6.808 6.224 6.672 6.328 6.504C6.44 6.336 6.496 6.124 6.496 5.868C6.496 5.628 6.44 5.428 6.328 5.268C6.216 5.1 6.06 4.968 5.86 4.872C5.668 4.768 5.44 4.692 5.176 4.644C4.912 4.596 4.632 4.572 4.336 4.572C4.04 4.572 3.808 4.576 3.64 4.584C3.472 4.592 3.32 4.604 3.184 4.62V7.188ZM9.74294 12V3.684H14.7589V4.68H10.9069V7.188H14.3269V8.172H10.9069V12H9.74294Z" fill="black"/>
</svg>
